<?xml version="1.0" encoding="UTF-8" standalone="no"?>
<!DOCTYPE svg PUBLIC "-//W3C//DTD SVG 1.1//EN" "http://www.w3.org/Graphics/SVG/1.1/DTD/svg11.dtd">
<svg width="100%" height="100%" viewBox="0 0 401 451" version="1.1" xmlns="http://www.w3.org/2000/svg" xmlns:xlink="http://www.w3.org/1999/xlink" xml:space="preserve" xmlns:serif="http://www.serif.com/" style="fill-rule:evenodd;clip-rule:evenodd;stroke-linejoin:round;stroke-miterlimit:2;">
    <g transform="matrix(1,0,0,1,-589,-446)">
        <g transform="matrix(1.20326,0,0,1.20326,421.101,240.482)">
            <path d="M400.623,171.177C399.404,171.705 397.623,173.745 396.798,175.558C396.423,176.382 395.333,180.063 394.364,183.778C389.527,202.322 387.409,210.548 384.572,221.803C380.731,237.042 379.607,240.558 376.717,246.373C375.089,249.649 372.392,254.124 372.046,254.124C371.886,254.124 370.935,253.347 369.94,252.404C367.099,249.711 360.814,244.278 357.012,241.229C319.354,211.033 281.517,197.333 242.41,199.734C239.661,199.902 237.211,200.107 236.97,200.187C236.727,200.268 237.906,200.852 239.602,201.492C243.4,202.925 249.986,206.106 254.812,208.84C258.26,210.793 260.106,211.91 267.477,216.5C281.898,225.479 288.22,228.799 296.552,231.765C300.91,233.317 304.909,234.352 308.603,234.886L311.382,235.287L302.782,235.64C284.676,236.383 273.736,238.417 262.651,243.101C255.612,246.076 250.308,249.53 239.456,258.206C234.249,262.368 229.25,266.099 226.293,268.028C223.398,269.917 216.741,273.429 216.056,273.429C215.822,273.429 215.617,273.538 215.617,273.663C215.617,273.898 216.963,274.11 228.341,275.664C242.322,277.574 256.164,278.495 264.611,278.077C273.293,277.647 279.528,276.376 292.574,272.376C301.261,269.712 308.859,267.936 314.921,267.154L316.383,266.965L314.628,267.847C312.023,269.158 310.746,270.387 307.645,274.57C299.093,286.107 295.559,292.588 288.889,308.968C283.303,322.686 280.552,330.968 280.552,334.064L280.552,335.38L282.102,335.716C292.935,338.061 305.21,335.526 317.612,328.383C325.129,324.054 333.824,317.726 339.608,312.375C346.455,306.041 352.708,296.858 355.015,289.75C355.471,288.346 355.881,287.245 355.929,287.293C355.977,287.342 354.32,293.962 352.254,301.977C347.48,320.492 347.617,319.893 346.587,326.664C346.119,329.734 346.143,342.225 346.623,345.676C347.619,352.843 349.359,359.588 351.828,365.859C353.314,369.632 356.452,375.871 358.257,378.641L359.439,380.455L359.63,377.53C360.285,367.502 364.302,358.722 374.741,344.506C387.071,327.717 391.099,318.826 391.135,308.324L391.146,304.873L391.837,307.505C393.772,314.876 397.915,323.241 402.629,329.296C410.22,339.048 419.08,345.394 432.798,350.904C437.076,352.622 440.052,353.739 458.977,360.73C464.037,362.599 469.041,364.456 470.077,364.85C471.101,365.239 472.004,365.52 472.052,365.464C472.1,365.408 471.584,364.996 470.911,364.553C469.117,363.373 468.019,362.378 463.508,357.844C458.647,352.959 455.415,348.982 451.129,342.605C446.963,336.409 445.514,334.006 438.383,321.457C427.311,301.977 422.099,294.309 414.801,286.767C409.592,281.384 405.654,278.417 393.603,270.792C390.21,268.646 386.728,266.396 385.823,265.765L384.185,264.625L385.633,261.817C389.779,253.781 392.035,246.782 396.836,227.068C398.054,222.066 399.311,217.082 399.64,215.953C402.875,204.838 405.618,198.432 410.161,191.383C415.024,183.836 415.631,180.589 412.886,176.816C411.665,175.139 407.439,171.947 405.537,171.268C403.899,170.682 401.852,170.644 400.623,171.177Z" style="fill:rgb(141,255,107);fill-rule:nonzero;"/>
        </g>
        <g transform="matrix(1.20326,0,0,1.20326,421.009,240.503)">
            <path d="M257.006,219.207C248.172,219.925 242.637,220.751 236.677,222.238C232.114,223.377 223.693,226.19 221.847,227.191C221.557,227.349 220.297,227.943 219.039,228.516C217.782,229.088 216.83,229.672 216.919,229.817C217.004,229.957 216.846,230.023 216.582,229.958C215.939,229.799 211.061,232.513 211.157,232.976C211.198,233.177 211.054,233.259 210.82,233.169C210.398,233.005 209.416,233.602 204.297,237.136C197.011,242.167 188.89,249.824 182.59,257.605C169.188,274.156 158.726,295.571 151.438,321.37C150.413,324.997 149.364,328.838 149.112,329.881C142.683,356.54 140.06,378.846 139.668,410.173C139.144,452.059 142.403,478.385 150.678,499.122C154.776,509.389 160.281,517.931 167.355,524.995C176.096,533.726 186.221,539.317 199.383,542.682C206.633,544.536 211.113,545.015 221.175,545.015C230.154,545.015 232.39,544.862 240.567,543.686C247.843,542.64 260.019,540.005 268.413,537.659C299.623,528.939 319.555,522.006 339.842,512.813C362.16,502.7 383.375,489.901 399.6,476.764C413.318,465.656 424.851,453.288 432.512,441.47C433.763,439.54 435.222,437.289 435.754,436.468C437.276,434.12 441.233,426.289 442.835,422.458C446.833,412.891 449.344,402.977 450.237,393.237C450.952,385.441 450.258,373.639 448.568,364.835C447.939,361.559 447.971,361.625 446.78,361.201C424.199,353.164 415.889,348.945 407.175,341.098C402.127,336.552 397.059,330.262 393.73,324.412L393.048,323.212L391.816,326.02C389.4,331.53 386.038,336.989 379.855,345.442C371.79,356.47 368.479,362.033 366.316,368.199C364.647,372.954 364.34,374.897 364.424,380.191C364.465,382.853 364.552,385.28 364.617,385.603C364.681,385.924 364.753,386.714 364.777,387.358L364.821,388.528L365.343,387.007C366.415,383.877 369.406,380.302 371.929,379.133C373.596,378.361 374.366,378.282 375.439,378.774C378.018,379.954 376.561,385.837 372.735,389.698C369.865,392.593 367.053,393.567 365.64,392.155L364.997,391.511L365.172,394.524C365.269,396.191 365.309,397.484 365.26,397.42C365.124,397.238 361.628,392.096 358.022,386.773C353.622,380.279 352.305,378.072 349.903,373.171C345.877,364.957 343.414,356.616 341.912,346.115C341.414,342.634 341.419,328.76 341.919,325.816C342.272,323.739 342.207,322.756 341.794,323.914C341.428,324.941 338.935,327.975 337.677,328.925C337.01,329.429 335.835,330.059 335.103,330.306C333.904,330.71 333.646,330.712 332.734,330.328C331.272,329.713 330.694,327.6 331.452,325.64C331.797,324.747 332.12,324.583 327.879,327.458C317.553,334.457 308.267,338.701 299.535,340.412L297.897,340.733L297.503,342.371C296.104,348.192 289.164,353.733 286.548,351.117C285.181,349.75 285.824,345.998 287.978,342.781L288.918,341.377L285.671,341.042C278.037,340.254 275.872,338.713 275.872,334.064C275.872,330.529 277.89,323.944 282.756,311.6C289.132,295.425 294.1,285.45 299.668,277.641C300.774,276.091 301.625,274.794 301.568,274.745C301.512,274.697 297.883,275.729 293.495,277.041L285.525,279.425L285.525,280.829C285.525,286.884 277.426,294.706 274.349,291.622C273.787,291.058 273.682,290.657 273.7,289.136C273.725,287.112 274.479,285.1 276.044,282.877C276.58,282.116 276.987,281.482 276.954,281.458C276.922,281.434 275.316,281.658 273.386,281.955C260.828,283.89 244.692,282.935 215.178,278.51C200.963,276.379 197.447,275.822 197.307,275.681C197.242,275.617 200.992,274.141 205.614,272.411C217.752,267.866 220.951,266.249 228.048,261.066L231.266,258.716L231.266,256.786C231.266,255.235 231.445,254.481 232.174,252.954C234.436,248.215 238.559,245.025 241.474,245.757C242.304,245.965 243.112,247.279 243.112,248.42C243.112,248.83 243.176,249.151 243.258,249.151C243.34,249.151 244.341,248.464 245.511,247.604C254.307,241.142 263.09,237.1 274.263,234.372C278.475,233.343 283.03,232.479 284.238,232.479C284.618,232.479 284.94,232.378 284.94,232.26C284.94,232.139 283.082,231.056 280.801,229.846C278.517,228.636 273.503,225.719 269.613,223.338L262.563,219.024L260.37,219.068C259.17,219.092 257.645,219.155 257.006,219.207ZM206.901,255.616C207.722,256.437 207.771,256.61 207.663,258.336C207.324,263.747 200.849,270.374 197.336,268.904C193.348,267.236 197.979,257.217 203.712,255.108C205.233,254.549 205.947,254.662 206.901,255.616ZM214.172,286.825C216.063,289.22 213.072,296.148 208.977,298.858C206.14,300.736 204.218,300.742 203.251,298.876C202.514,297.454 202.789,295.747 204.218,292.88C205.983,289.341 208.876,286.601 211.434,286.048C212.868,285.738 213.441,285.901 214.172,286.825ZM246.88,290.014C249.006,292.395 245.452,299.893 240.948,302.531C237.109,304.78 234.71,302.854 235.92,298.496C237.064,294.372 240.292,290.563 243.697,289.316C245.013,288.835 246.026,289.056 246.88,290.014ZM180.546,297.121C180.691,297.121 181.073,297.385 181.395,297.706C181.861,298.173 181.98,298.672 181.98,300.163C181.98,301.775 181.817,302.357 180.812,304.346C177.753,310.401 171.643,313.482 170.369,309.611C169.374,306.584 172.473,300.727 176.481,298.063C177.621,297.305 179.24,296.805 179.903,297.006C180.108,297.068 180.405,297.121 180.546,297.121ZM267.113,315.052C267.451,315.415 267.785,315.988 267.88,316.368C268.456,318.654 266.624,322.92 263.874,325.699C259.492,330.126 255.503,329.677 256.078,324.821C256.757,319.088 264.495,312.238 267.113,315.052ZM216.641,317.026C217.105,317.502 217.224,318.006 217.217,319.468C217.204,321.908 215.706,324.997 213.344,327.454C210.391,330.525 207.503,331.441 206.061,329.764C203.072,326.288 210.352,315.526 215.178,316.288C215.676,316.366 216.309,316.686 216.641,317.026ZM171.83,341.31C175.465,342.966 171.128,352.668 165.746,354.918C164.283,355.53 162.575,355.464 161.953,354.773C159.97,352.568 162.324,346.5 166.536,342.956C168.554,341.259 170.434,340.674 171.83,341.31ZM231.939,345.097C235.293,348.223 228.838,358.817 223.573,358.828C220.553,358.834 220.07,355.534 222.44,351.088C224.951,346.378 229.938,343.233 231.939,345.097ZM398.196,351.258C399.099,351.744 399.684,353.428 399.448,354.861C399.114,356.879 397.47,360.042 395.814,361.852C392.896,365.04 389.886,366.119 388.309,364.543C387.617,363.85 387.558,363.607 387.654,361.822C387.795,359.219 389.163,356.483 391.561,354.013C394.116,351.38 396.546,350.372 398.196,351.258ZM198.096,357.916C198.716,358.421 198.797,358.722 198.788,360.477C198.775,363.109 197.545,365.732 195.098,368.345C190.782,372.954 186.474,372.703 187.05,367.877C187.503,364.075 191.242,359.035 194.616,357.679C195.756,357.22 197.377,357.331 198.096,357.916ZM334.577,359.248C335.319,359.885 335.395,360.126 335.387,361.822C335.374,364.396 333.879,367.453 331.41,369.954C329.418,371.972 327.771,372.856 325.977,372.869C324.983,372.877 324.631,372.729 324.129,372.089C323.226,370.939 323.463,368.374 324.716,365.742C326.415,362.173 330.574,358.546 332.968,358.546C333.391,358.546 334.138,358.872 334.577,359.248ZM264.736,361.354C266.365,363.441 264.523,368.694 260.925,372.227C259.551,373.577 257.123,374.926 256.07,374.926C253.165,374.926 252.538,371.533 254.68,367.409C256.062,364.747 257.532,363.042 259.58,361.724C260.984,360.82 261.616,360.594 262.739,360.594C263.909,360.594 264.242,360.721 264.736,361.354ZM432.919,368.989C435.116,371.784 431.307,379.379 426.48,381.827C422.945,383.619 420.881,381.625 421.974,377.471C423.529,371.563 430.623,366.065 432.919,368.989ZM299.84,375.394C302.049,378.208 298.073,386.012 293.276,388.277C291.404,389.161 290.367,389.158 289.473,388.264C288.435,387.226 288.283,386.188 288.851,384.023C290.103,379.255 294.541,374.634 297.868,374.634C299.009,374.634 299.344,374.763 299.84,375.394ZM224.919,382.706C227.244,384.33 225.745,389.815 221.92,393.676C219.023,396.601 216.419,397.432 214.827,395.94C214.147,395.303 214.105,395.109 214.226,393.178C214.39,390.546 215.757,387.867 218.211,385.369C220.825,382.707 223.436,381.67 224.919,382.706ZM163.172,385.617C163.523,385.864 163.975,386.583 164.166,387.197C164.466,388.16 164.428,388.615 163.903,390.341C162.061,396.396 155.744,401.37 153.168,398.794C152.57,398.196 152.437,397.771 152.437,396.454C152.437,394.389 153.187,392.418 154.875,390.049C157.645,386.158 161.227,384.246 163.172,385.617ZM189.837,396.016C190.976,397.241 190.762,399.73 189.25,402.831C187.539,406.341 183.552,409.715 181.102,409.725C177.303,409.741 178.143,403.299 182.563,398.531C185.22,395.665 188.466,394.542 189.837,396.016ZM412.089,396.421C415.008,398.468 411.534,406.578 406.503,409.46C400.988,412.619 399.377,406.78 404.044,400.549C406.805,396.864 410.221,395.111 412.089,396.421ZM440.082,400.118C442.781,401.354 441.331,407.248 437.342,411.255C434.722,413.887 432.399,414.797 430.663,413.871C428.82,412.888 429.353,408.886 431.817,405.2C433.459,402.743 434.86,401.441 436.893,400.481C438.561,399.693 439.036,399.639 440.082,400.118ZM339.813,401.983C340.506,402.676 340.563,402.919 340.46,404.732C340.185,409.558 334.986,415.584 331.096,415.584C329.839,415.584 329.276,415.116 328.807,413.683C327.807,410.623 331.74,403.895 335.63,402.011C337.648,401.034 338.855,401.026 339.813,401.983ZM267.185,403.303C269.299,404.971 267.906,409.997 264.259,413.858C262.159,416.081 260.468,417.046 258.673,417.046C257.708,417.046 257.351,416.889 256.845,416.242C256.303,415.549 256.235,415.174 256.352,413.536C256.585,410.278 258.966,406.482 262.242,404.147C264.435,402.583 265.946,402.325 267.185,403.303ZM301.217,413.99C301.897,414.67 301.953,414.911 301.852,416.725C301.534,422.428 294.62,429.185 291.053,427.278C290.205,426.825 289.839,425.002 290.226,423.16C291.204,418.509 296.131,413.244 299.506,413.244C300.15,413.244 300.72,413.493 301.217,413.99ZM229.482,415.892C230.492,416.69 230.69,418.041 230.121,420.264C229.867,421.258 229.743,422.216 229.847,422.385C229.956,422.56 229.906,422.61 229.73,422.502C229.556,422.394 229.045,422.984 228.552,423.862C227.37,425.968 224.157,428.886 222.374,429.473C220.014,430.251 218.546,429.185 218.552,426.699C218.562,422.721 222.013,417.648 225.913,415.876C227.551,415.132 228.524,415.136 229.482,415.892ZM380.47,419.907C380.65,420.025 381.017,420.556 381.303,421.112C383.236,424.876 376.785,434.011 372.192,434.011C371.52,434.011 370.952,433.765 370.437,433.251C369.726,432.54 369.686,432.359 369.823,430.458C369.932,428.937 370.217,427.939 370.952,426.494C372.114,424.213 374.953,421.209 376.785,420.324C378.072,419.703 379.849,419.501 380.47,419.907ZM416.535,428.337C417.465,429.516 417.581,430.443 417.051,432.461C416.452,434.743 415.453,436.481 413.54,438.574C410.679,441.704 407.388,442.836 406.058,441.148C404.399,439.044 406.152,433.886 409.72,430.371C412.499,427.635 415.317,426.793 416.535,428.337ZM165.102,433.7C166.766,434.328 166.878,437.58 165.346,440.797C163.605,444.454 159.795,447.759 157.322,447.759C155.801,447.759 155.17,447.355 154.76,446.121C153.978,443.763 155.726,439.54 158.768,436.439C161.207,433.953 163.335,433.033 165.102,433.7ZM197.394,435.357C198.061,436.024 198.116,436.264 198.013,438.077C197.885,440.329 196.69,443.071 194.939,445.126C194.366,445.799 194.03,446.439 194.148,446.633C194.272,446.838 194.221,446.889 194.016,446.764C193.832,446.653 193.241,446.888 192.714,447.281C189.497,449.687 187.099,449.558 186.38,446.94C185.455,443.573 189.409,437.018 193.475,435.177C195.23,434.382 196.477,434.44 197.394,435.357ZM346.189,437.812C346.617,437.978 347.167,438.56 347.447,439.145C347.874,440.037 347.895,440.417 347.595,441.85C346.58,446.706 341.975,451.788 338.467,451.923C337.443,451.963 337.117,451.83 336.507,451.123C335.846,450.355 335.79,450.099 335.919,448.432C336.108,446.004 337.414,443.328 339.532,441.031C342.174,438.165 344.363,437.107 346.189,437.812ZM271.481,444.103C272.885,445.599 272.022,449.689 269.613,452.965C265.611,458.406 260.34,459.42 260.34,454.75C260.34,448.636 268.457,440.879 271.481,444.103ZM239.029,447.613C241.32,450.062 237.759,457.653 233.05,460.36C230.125,462.042 227.902,461.173 227.902,458.347C227.902,455.569 229.454,452.32 231.997,449.777C234.834,446.94 237.603,446.088 239.029,447.613ZM311.586,447.427C312.202,447.924 312.288,448.242 312.288,450.026C312.288,451.821 312.155,452.322 311.147,454.311C308.583,459.371 303.38,462.665 301.352,460.512C300.381,459.482 300.275,458.055 300.994,455.686C301.641,453.55 303.81,450.313 305.561,448.868C307.872,446.961 310.291,446.383 311.586,447.427ZM386.905,454.633C387.598,455.326 387.656,455.569 387.556,457.382C387.294,462.15 382.13,468.202 378.306,468.223C376.872,468.231 376.251,467.774 375.895,466.45C375.228,463.972 376.898,459.956 379.838,456.973C382.777,453.989 385.395,453.123 386.905,454.633ZM355.578,465.48C356.322,466.172 356.361,466.333 356.255,468.205C355.907,474.318 348.122,481.442 345.196,478.325C343.089,476.081 346.014,469.156 350.313,466.205C352.683,464.58 354.364,464.348 355.578,465.48ZM207.895,468.965C210.366,471.436 206.286,479.578 201.431,481.866C199.793,482.638 199.013,482.716 197.921,482.217C195.439,481.082 196.865,475.195 200.542,471.393C203.342,468.497 206.413,467.483 207.895,468.965ZM173.146,472.158C174.922,473.901 173.348,478.881 169.875,482.508C168.027,484.438 166.754,485.268 165.102,485.619C163.845,485.886 162.451,485.148 162.21,484.087C162.111,483.649 161.98,483.129 161.916,482.917C161.721,482.278 162.358,479.963 163.211,478.208C164.363,475.839 167.629,472.503 169.519,471.767C171.216,471.106 172.18,471.21 173.146,472.158ZM312.552,476.826C316.869,478.635 311.294,489.43 305.298,490.872C304.128,491.153 302.894,490.579 302.471,489.557C300.996,485.987 305.21,478.793 309.861,476.942C311.382,476.336 311.382,476.336 312.552,476.826ZM274.375,477.477C276.592,480.295 272.713,487.934 267.858,490.311C263.367,492.511 261.704,488.797 264.653,483.151C265.768,481.016 268.345,478.3 270.168,477.338C271.865,476.443 273.607,476.5 274.375,477.477ZM241.6,483.385C242.201,484.045 242.278,484.38 242.183,485.901C242.027,488.387 240.715,491.047 238.446,493.477C234.623,497.572 231.087,497.956 230.368,494.354C229.927,492.143 232.26,487.353 235.01,484.824C237.789,482.269 240.12,481.76 241.6,483.385ZM333.582,493.396C334.743,494.301 334.89,496.051 334.016,498.566C333.193,500.935 332.308,502.315 330.264,504.416C327.617,507.136 324.561,507.979 323.261,506.347C322.263,505.093 322.542,502.339 323.938,499.678C325.81,496.109 329.698,492.821 332.061,492.808C332.471,492.806 333.173,493.077 333.582,493.396ZM206.871,501.83C207.492,502.332 207.573,502.647 207.573,504.548C207.573,506.478 207.457,506.916 206.437,508.833C203.808,513.776 198.753,516.98 196.663,515.028C194.745,513.236 196.15,508.306 199.647,504.562C202.352,501.667 205.293,500.554 206.871,501.83ZM287.842,506.668C288.797,507.687 288.905,509.272 288.168,511.465C286.134,517.52 279.592,522.374 277.328,519.509C275.977,517.8 277.044,513.601 279.707,510.149C282.437,506.61 286.255,504.976 287.842,506.668ZM248.348,517.93C249.197,518.779 249.388,519.889 249.002,521.732C248.499,524.131 247.335,526.261 245.39,528.343C239.658,534.477 234.919,531.589 238.572,524.189C240.999,519.275 246.299,515.881 248.348,517.93Z" style="fill:rgb(255,94,94);fill-rule:nonzero;"/>
        </g>
        <g transform="matrix(1.20326,0,0,1.20326,421.062,240.501)">
            <path d="M343.045,315.564C342.252,316.356 342.23,316.441 342.606,317.289C342.826,317.787 343.065,318.181 343.147,318.181C343.293,318.181 344.055,314.907 343.937,314.788C343.904,314.756 343.513,315.096 343.045,315.564Z" style="fill-rule:nonzero;"/>
        </g>
    </g>
</svg>
